HIERARCHY
ROOT Hips
{
	OFFSET -3.958830 18.904000 13.208200
	CHANNELS 6 Xposition Yposition Zposition Zrotation Yrotation Xrotation 
	JOINT LHipJoint
	{
		OFFSET 0.000000 0.000000 0.000000
		CHANNELS 3 Zrotation Yrotation Xrotation
		JOINT LeftUpLeg
		{
			OFFSET 1.800000 -1.400000 0.085000
			CHANNELS 3 Zrotation Yrotation Xrotation
			JOINT LeftLeg
			{
				OFFSET 2.215000 -6.000000 0.000000
				CHANNELS 3 Zrotation Yrotation Xrotation
				JOINT LeftFoot
				{
					OFFSET 2.500000 -6.900000 0.000000
					CHANNELS 3 Zrotation Yrotation Xrotation
					JOINT LeftToeBase
					{
						OFFSET 0.200000 -0.500000 1.950000
						CHANNELS 3 Zrotation Yrotation Xrotation
						End Site
						{
							OFFSET 0.000000 0.000000 0.000000
						}
					}
				}
			}
		}
	}
	JOINT RHipJoint
	{
		OFFSET 0.000000 0.000000 0.000000
		CHANNELS 3 Zrotation Yrotation Xrotation
		JOINT RightUpLeg
		{
			OFFSET -1.800000 -1.400000 0.085000
			CHANNELS 3 Zrotation Yrotation Xrotation
			JOINT RightLeg
			{
				OFFSET -2.215000 -6.000000 0.000000
				CHANNELS 3 Zrotation Yrotation Xrotation
				JOINT RightFoot
				{
					OFFSET -2.500000 -6.900000 0.000000
					CHANNELS 3 Zrotation Yrotation Xrotation
					JOINT RightToeBase
					{
						OFFSET -0.200000 -0.500000 1.950000
						CHANNELS 3 Zrotation Yrotation Xrotation
						End Site
						{
							OFFSET 0.000000 0.000000 0.000000
						}
					}
				}
			}
		}
	}
	JOINT LowerBack
	{
		OFFSET 0.000000 0.000000 0.000000
		CHANNELS 3 Zrotation Yrotation Xrotation
		JOINT Spine
		{
			OFFSET -0.087000 1.940000 -0.288900
			CHANNELS 3 Zrotation Yrotation Xrotation
			JOINT Spine1
			{
				OFFSET 0.000000 1.950000 0.060000
				CHANNELS 3 Zrotation Yrotation Xrotation
				JOINT Neck
				{
					OFFSET 0.000000 0.000000 0.000000
					CHANNELS 3 Zrotation Yrotation Xrotation
					JOINT Neck1
					{
						OFFSET 0.000000 1.600000 0.340000
						CHANNELS 3 Zrotation Yrotation Xrotation
						JOINT Head
						{
							OFFSET 0.000000 1.667000 -0.240000
							CHANNELS 3 Zrotation Yrotation Xrotation
							End Site
							{
								OFFSET 0.000000 0.000000 0.000000
							}
						}
					}
				}
				JOINT LeftShoulder
				{
					OFFSET 0.000000 0.000000 0.000000
					CHANNELS 3 Zrotation Yrotation Xrotation
					JOINT LeftArm
					{
						OFFSET 2.700000 1.550000 -0.730000
						CHANNELS 3 Zrotation Yrotation Xrotation
						JOINT LeftForeArm
						{
							OFFSET 5.450000 0.000000 0.000000
							CHANNELS 3 Zrotation Yrotation Xrotation
							JOINT LeftHand
							{
								OFFSET 3.450000 0.000000 0.000000
								CHANNELS 3 Zrotation Yrotation Xrotation
								JOINT LeftHandIndex1
								{
									OFFSET 0.750000 0.000000 0.000000
									CHANNELS 3 Zrotation Yrotation Xrotation
									End Site
									{
										OFFSET 0.000000 0.000000 0.000000
									}
								}
							}
						}
					}
				}
				JOINT RightShoulder
				{
					OFFSET 0.000000 0.000000 0.000000
					CHANNELS 3 Zrotation Yrotation Xrotation
					JOINT RightArm
					{
						OFFSET -2.700000 1.550000 -0.730000
						CHANNELS 3 Zrotation Yrotation Xrotation
						JOINT RightForeArm
						{
							OFFSET -5.450000 0.000000 0.000000
							CHANNELS 3 Zrotation Yrotation Xrotation
							JOINT RightHand
							{
								OFFSET -3.450000 0.000000 0.000000
								CHANNELS 3 Zrotation Yrotation Xrotation
								JOINT RightHandIndex1
								{
									OFFSET -0.750000 0.000000 0.000000
									CHANNELS 3 Zrotation Yrotation Xrotation
									End Site
									{
										OFFSET 0.000000 0.000000 0.000000
									}
								}
							}
						}
					}
				}
			}
		}
	}
}
MOTION
Frames: 8
Frame Time: 0.016667
-0.507500 16.678420 -1.821050 -5.553511 3.237075 -0.918444 -15.745774 13.535143 3.025537 -2.997495 0.471456 16.074439 -2.532543 8.220004 28.501233 -0.495061 8.395942 1.968265 0.081950 -0.201000 -0.207160 18.062320 -7.901184 4.433773 1.272706 9.795539 -39.493011 30.006563 -16.015094 32.729472 -1.228980 -7.124178 1.882900 0.178320 0.966670 0.460140 -2.515220 -5.899959 -8.383446 7.631497 -7.026912 25.834492 2.160360 -6.478189 15.281205 -0.142601 -2.974403 -11.452207 -7.269427 2.219867 24.820331 -3.770930 2.246660 -27.867990 -3.428976 -17.184318 6.221881 -28.727202 -29.156255 -0.480260 118.337297 -43.490918 -84.176193 -4.293641 1.920606 1.179510 0.405730 0.006270 0.335730 3.847397 15.585136 7.258919 40.391417 3.858506 -17.705341 -63.680450 48.696721 -29.562337 0.911372 -0.705357 -0.818730 0.906020 0.555470 -0.183030 
-0.501840 16.631140 -1.797240 -5.439217 2.777868 -1.462308 -15.759183 13.528177 3.067426 -2.606781 0.678923 17.180966 -3.688250 8.765843 27.853584 -0.394865 8.504243 1.951850 0.039060 -0.225310 -0.249920 18.052765 -7.850092 4.441205 1.380405 9.994009 -39.150065 30.505000 -16.342423 33.224558 -1.263174 -7.263909 1.877002 0.141070 0.975250 0.441910 -2.478908 -5.959314 -8.443506 7.610869 -6.928174 26.693223 2.153701 -6.445320 15.644572 0.004094 -3.166886 -11.978409 -7.732269 2.461665 25.326440 -3.855870 2.299590 -27.871900 -3.256730 -18.202692 6.729701 -27.443083 -27.659452 -1.883121 118.433985 -44.345926 -85.528013 -4.306667 1.881178 1.159920 0.404090 0.005290 0.337110 3.392709 16.838718 7.848744 40.507202 3.414302 -18.593281 -68.726784 48.279982 -33.130480 0.940203 -0.658863 -0.806980 0.913730 0.560540 -0.160370 
-0.508300 16.588560 -1.734700 -5.011087 2.002779 -2.002850 -15.792366 13.529678 3.128797 -2.146114 0.951970 18.435295 -5.178654 9.475805 27.113366 -0.279729 8.662154 1.913394 -0.039310 -0.335410 -0.268900 18.021187 -7.769320 4.488738 1.199257 10.400620 -38.979739 30.965178 -16.918454 34.489460 -1.320203 -7.518977 1.814537 0.048170 0.947950 0.422160 -2.380346 -6.054223 -8.563554 6.956606 -6.462438 27.872896 2.342245 -6.088611 15.365276 0.450746 -3.117660 -12.672210 -7.927655 2.820132 26.753686 -4.216980 2.771180 -28.423990 -3.775415 -19.084496 7.243614 -25.853370 -25.200002 -3.066622 119.340386 -46.618767 -89.286459 -4.293732 1.854099 1.183810 0.366750 0.006320 0.300270 3.094488 18.101266 8.668264 41.514838 2.756034 -19.753363 -75.976522 48.632767 -39.158969 0.996517 -0.544416 -0.811870 0.884600 0.582910 -0.172640 
-0.496820 16.599270 -1.658060 -5.009261 1.716541 -1.843666 -15.749958 13.535143 3.127822 -1.787414 0.855932 18.200268 -5.656266 9.797465 27.545227 -0.164315 8.729730 1.930003 -0.181130 -0.498080 -0.366900 18.042450 -7.819372 4.529388 0.984233 10.444831 -38.801215 31.636187 -17.248376 34.509616 -1.315247 -7.593302 1.840985 -0.087050 0.982370 0.401950 -2.470274 -5.951213 -8.636996 8.046978 -6.919937 28.355566 1.815581 -6.185387 14.318950 1.070770 -3.680295 -13.685473 -9.311991 3.470614 28.445899 -4.851810 2.958820 -27.604540 -4.570104 -19.623408 8.148622 -25.795571 -22.010705 -3.368207 121.219510 -50.871517 -96.852239 -4.316294 1.820124 1.177270 0.362290 -0.018270 0.278490 2.835561 19.276833 9.499963 42.616416 2.098276 -20.527951 -82.484145 50.239239 -45.945028 1.038855 -0.335579 -0.818020 0.877860 0.636330 -0.148240 
-0.480420 16.684310 -1.565840 -4.994740 1.250071 -1.449107 -15.710495 13.630982 3.129120 -1.696259 0.865687 17.297281 -5.308186 9.674480 27.811373 -0.074009 8.611291 1.985806 -0.267340 -0.584450 -0.463670 18.050607 -7.918103 4.486682 1.172668 10.239649 -37.560146 31.398451 -16.845549 33.576420 -1.255860 -7.375753 1.935804 -0.187010 0.993910 0.408020 -2.538938 -5.966214 -8.639773 9.329386 -7.518016 28.610856 1.395015 -6.319711 13.123029 1.689520 -5.152945 -14.556142 -12.410911 4.337256 29.388678 -4.818860 2.422520 -26.897530 -6.037240 -19.199404 8.894910 -27.867356 -19.201408 -2.835860 123.447933 -56.864951 -107.267981 -4.307441 1.901839 1.152120 0.341150 -0.019400 0.278080 3.346228 20.187070 10.175721 42.130249 1.068743 -20.699608 -88.284083 54.231474 -54.314053 1.047063 0.034015 -0.775240 0.842840 0.665470 -0.096920 
-0.479130 16.816370 -1.461970 -5.215955 0.972060 -0.561049 -15.631348 13.716885 3.058694 -0.678436 0.305748 15.059995 -5.693644 9.986213 29.299746 0.008738 8.613246 1.974824 -0.317540 -0.630690 -0.514550 18.082433 -8.171377 4.394074 2.691940 10.011083 -35.483326 29.438495 -15.363459 31.544249 -1.089180 -6.735204 2.152473 -0.257620 0.990380 0.432900 -2.694319 -5.697441 -8.580763 10.761543 -7.933078 27.620601 0.515161 -6.230309 12.432586 2.264961 -5.315277 -15.264375 -12.979457 4.931061 30.506336 -4.954630 2.575260 -24.760010 -6.691543 -19.199167 9.364647 -30.030943 -17.363247 -2.270802 123.640456 -65.054585 -116.987774 -4.303546 2.065284 1.096780 0.346250 -0.021280 0.266870 2.967997 20.483445 10.807629 43.415375 0.771671 -20.317037 -92.009858 59.519178 -62.353490 1.017271 0.618333 -0.711300 0.778060 0.678490 -0.061080 
-0.503070 17.000220 -1.362200 -4.557705 0.893799 0.319468 -15.605982 13.894354 3.028567 0.161215 -0.361425 11.869551 -6.062816 10.466610 32.059797 0.049264 8.760900 1.917766 -0.330770 -0.661820 -0.502410 18.046142 -8.435808 4.247877 3.892893 9.393868 -33.039592 26.040261 -13.247082 29.050571 -0.879619 -5.831863 2.456403 -0.297160 0.978320 0.433630 -2.673207 -5.603396 -8.556295 9.875913 -7.472915 26.961906 0.623492 -5.665551 11.265064 2.635703 -5.018570 -15.518496 -12.750682 5.590419 32.207230 -4.378290 2.835630 -24.209650 -8.038781 -19.179593 9.317288 -32.135673 -16.168324 -1.826456 119.842372 -75.434183 -122.767306 -4.275088 2.119520 1.110530 0.326200 -0.002470 0.264210 3.712407 20.717729 11.113042 43.760296 0.508937 -20.470016 -91.659151 66.633403 -66.335680 0.807884 1.784172 -0.699310 0.767230 0.668550 -0.059300 
-0.540280 17.194990 -1.266960 -3.777214 1.479680 1.375425 -15.554709 14.012455 2.938405 1.104668 -1.430758 7.572596 -5.281585 10.732313 36.903366 0.033427 9.085176 1.758197 -0.286650 -0.620130 -0.477730 18.045700 -8.711412 4.104363 4.865381 8.687409 -31.088799 22.425871 -11.203353 26.404880 -0.684726 -4.975414 2.712283 -0.261860 0.965080 0.448740 -2.746917 -5.403283 -8.454849 9.167269 -7.102162 25.591994 0.567949 -5.376947 10.289927 2.547615 -5.003608 -14.942011 -12.628765 5.804085 32.253121 -3.168230 2.197580 -23.495480 -7.336991 -19.084063 8.378479 -37.492518 -15.346903 -6.541881 -3.910145 -86.739615 -6.928165 -3.786661 2.637813 1.115900 0.320000 0.006450 0.266560 3.292162 20.716199 10.813641 46.426982 1.305724 -23.264656 -83.950883 75.892341 -64.766456 0.439859 3.028372 -0.688150 0.753700 0.658660 -0.062250 
